# This file uses centimeters as units for non-parametric coordinates.

v -10.651264 0.921476 8.122118
v -10.651264 7.575994 8.122118
v -10.689342 7.575994 8.122118
v -10.689342 0.921476 8.122118
v -10.651264 7.575994 15.115801
v -10.689342 7.575994 15.115801
v -10.651264 0.921476 15.115801
v -10.689342 0.921476 15.115801
vt 0.322955 0.664945
vt 0.648460 0.664900
vt 0.000977 0.336977
vt 0.322910 0.336933
vt 0.324741 0.664945
vt 0.324695 0.336933
vt 0.646628 0.336887
vt 0.646674 0.664900
vt 0.646628 0.335102
vt 0.001022 0.664990
vt 0.324695 0.335147
vt 0.324741 0.666731
vt 0.648414 0.336887
vt 0.646674 0.666686
vn 0.000000 -0.724454 -0.689323
vn 0.000000 -0.724456 -0.689321
vn 0.000000 0.724455 -0.689322
vn 0.000000 0.724455 -0.689322
vn 0.000000 0.724455 0.689322
vn 0.000000 0.724455 0.689322
vn 0.000000 -0.724455 0.689322
vn 0.000000 -0.724455 0.689322
vn -1.000000 0.000000 -0.000000
vn -1.000000 0.000000 -0.000000
vn -1.000000 0.000000 -0.000000
vn -1.000000 0.000000 -0.000000
vn 1.000000 0.000000 0.000000
vn 1.000000 0.000000 0.000000
vn 1.000000 0.000000 0.000000
vn 1.000000 0.000000 0.000000
s 1
f 1/8/1 4/14/2 3/12/3 2/5/4
f 2/5/4 3/1/3 6/4/5 5/6/6
f 7/7/7 5/6/6 6/11/5 8/9/8
f 7/7/7 8/13/8 4/2/2 1/8/1
s off
f 3/1/9 4/10/10 8/3/11 6/4/12
f 2/5/13 5/6/14 7/7/15 1/8/16
v -10.817597 0.921477 0.955950
v -10.817597 7.575995 0.955951
v -10.855675 7.575995 0.955951
v -10.855675 0.921477 0.955951
v -10.817597 7.575995 7.949634
v -10.855675 7.575995 7.949634
v -10.817597 0.921477 7.949634
v -10.855675 0.921477 7.949634
vt 0.983819 0.326481
vt 0.983774 0.000977
vt 0.655851 0.648460
vt 0.655806 0.326527
vt 0.983819 0.324695
vt 0.655806 0.324741
vt 0.655761 0.002808
vt 0.983774 0.002762
vt 0.653976 0.002808
vt 0.983864 0.648414
vt 0.654020 0.324741
vt 0.985604 0.324695
vt 0.655761 0.001022
vt 0.985560 0.002762
vn 0.000000 -0.724454 -0.689323
vn 0.000000 -0.724456 -0.689321
vn 0.000000 0.724455 -0.689322
vn 0.000000 0.724455 -0.689322
vn 0.000000 0.724455 0.689322
vn 0.000000 0.724455 0.689322
vn 0.000000 -0.724455 0.689322
vn 0.000000 -0.724455 0.689322
vn -1.000000 0.000000 -0.000000
vn -1.000000 0.000000 -0.000000
vn -1.000000 0.000000 -0.000000
vn -1.000000 0.000000 -0.000000
vn 1.000000 0.000000 0.000000
vn 1.000000 0.000000 0.000000
vn 1.000000 0.000000 0.000000
vn 1.000000 0.000000 0.000000
s 1
f 9/22/17 12/28/18 11/26/19 10/19/20
f 10/19/20 11/15/19 14/18/21 13/20/22
f 15/21/23 13/20/22 14/25/21 16/23/24
f 15/21/23 16/27/24 12/16/18 9/22/17
s off
f 11/15/25 12/24/26 16/17/27 14/18/28
f 10/19/29 13/20/30 15/21/31 9/22/32
v -10.817597 0.921476 -6.376884
v -10.817597 7.575994 -6.376883
v -10.855675 7.575994 -6.376883
v -10.855675 0.921476 -6.376883
v -10.817597 7.575994 0.616800
v -10.855675 7.575994 0.616800
v -10.817597 0.921476 0.616800
v -10.855675 0.921476 0.616800
vt 0.322955 0.330820
vt 0.648460 0.330775
vt 0.000977 0.002852
vt 0.322910 0.002807
vt 0.324741 0.330820
vt 0.324695 0.002807
vt 0.646628 0.002762
vt 0.646674 0.330775
vt 0.646628 0.000977
vt 0.001022 0.330865
vt 0.324695 0.001021
vt 0.324741 0.332606
vt 0.648414 0.002762
vt 0.646674 0.332561
vn 0.000000 -0.724454 -0.689323
vn 0.000000 -0.724456 -0.689321
vn 0.000000 0.724455 -0.689322
vn 0.000000 0.724455 -0.689322
vn 0.000000 0.724455 0.689322
vn 0.000000 0.724455 0.689322
vn 0.000000 -0.724455 0.689322
vn 0.000000 -0.724455 0.689322
vn -1.000000 0.000000 -0.000000
vn -1.000000 0.000000 -0.000000
vn -1.000000 0.000000 -0.000000
vn -1.000000 0.000000 -0.000000
vn 1.000000 0.000000 0.000000
vn 1.000000 0.000000 0.000000
vn 1.000000 0.000000 0.000000
vn 1.000000 0.000000 0.000000
s 1
f 17/36/33 20/42/34 19/40/35 18/33/36
f 18/33/36 19/29/35 22/32/37 21/34/38
f 23/35/39 21/34/38 22/39/37 24/37/40
f 23/35/39 24/41/40 20/30/34 17/36/33
s off
f 19/29/41 20/38/42 24/31/43 22/32/44
f 18/33/45 21/34/46 23/35/47 17/36/48
v -10.651264 0.921476 -13.543048
v -10.651264 7.575994 -13.543048
v -10.689342 7.575994 -13.543048
v -10.689342 0.921476 -13.543048
v -10.651264 7.575994 -6.549365
v -10.689342 7.575994 -6.549365
v -10.651264 0.921476 -6.549365
v -10.689342 0.921476 -6.549365
vt 0.659594 0.997238
vt 0.985099 0.997193
vt 0.337616 0.669270
vt 0.659549 0.669225
vt 0.661380 0.997238
vt 0.661335 0.669225
vt 0.983268 0.669180
vt 0.983313 0.997193
vt 0.983267 0.667395
vt 0.337661 0.997283
vt 0.661334 0.667439
vt 0.661380 0.999023
vt 0.985053 0.669180
vt 0.983314 0.998979
vn 0.000000 -0.724454 -0.689323
vn 0.000000 -0.724456 -0.689321
vn 0.000000 0.724455 -0.689322
vn 0.000000 0.724455 -0.689322
vn 0.000000 0.724455 0.689322
vn 0.000000 0.724455 0.689322
vn 0.000000 -0.724455 0.689322
vn 0.000000 -0.724455 0.689322
vn -1.000000 0.000000 -0.000000
vn -1.000000 0.000000 -0.000000
vn -1.000000 0.000000 -0.000000
vn -1.000000 0.000000 -0.000000
vn 1.000000 0.000000 0.000000
vn 1.000000 0.000000 0.000000
vn 1.000000 0.000000 0.000000
vn 1.000000 0.000000 0.000000
s 1
f 25/50/49 28/56/50 27/54/51 26/47/52
f 26/47/52 27/43/51 30/46/53 29/48/54
f 31/49/55 29/48/54 30/53/53 32/51/56
f 31/49/55 32/55/56 28/44/50 25/50/49
s off
f 27/43/57 28/52/58 32/45/59 30/46/60
f 26/47/61 29/48/62 31/49/63 25/50/64
